<svg width="47" height="51" viewBox="0 0 47 51" fill="none" xmlns="http://www.w3.org/2000/svg">
<path d="M5.22214 50.4973C5.06866 50.4973 4.92669 50.4934 4.80391 50.4819C4.02884 50.4128 3.44561 50.1131 3.07726 49.5907C2.28301 48.4767 2.78565 47.4165 3.99814 44.8504C4.59287 43.5904 5.79385 41.0589 5.88977 40.0717L5.86675 40.0409C4.25905 38.0242 0 32.6539 0 23.2885C0 18.0027 2.12185 12.5863 5.82454 8.42599C8.83658 5.03786 14.2966 0.916006 23.1869 0.52418C31.2484 0.174611 36.5051 3.50897 39.4941 6.37851C43.6227 10.3352 46.086 15.9706 46.086 21.4523C46.086 33.1494 37.6715 41.9693 26.5136 41.9693C17.2511 41.9693 9.67688 34.394 9.63467 25.0786C9.61549 20.8914 11.1349 17.0884 13.9129 14.3687C16.6717 11.6643 20.5164 10.2353 24.7294 10.3505C32.0427 10.5465 36.4092 16.7965 36.4092 22.7238C36.4092 28.2631 32.0964 32.65 26.5903 32.7115C24.1001 32.723 21.583 31.7242 19.8411 29.9994C18.2602 28.4321 17.4238 26.4308 17.4276 24.2066C17.4276 20.4689 20.4703 17.4265 24.2037 17.4265C27.3961 17.4265 29.9937 20.0271 29.9937 23.2232C29.9937 24.245 29.1649 25.0747 28.1443 25.0747C27.1237 25.0747 26.2949 24.245 26.2949 23.2232C26.2949 22.0707 25.3586 21.1334 24.2075 21.1334C22.5154 21.1334 21.1341 22.5125 21.1341 24.2104C21.1341 25.4397 21.5754 26.5037 22.4502 27.3681C23.49 28.3976 25.0555 29.0314 26.5558 29.0122C30.412 28.9699 32.718 25.7854 32.718 22.7315C32.718 18.575 29.6944 14.1958 24.6411 14.0614C21.3874 13.9769 18.5787 14.9987 16.5106 17.0231C14.4539 19.036 13.3297 21.894 13.345 25.067C13.3796 32.3466 19.2885 38.2662 26.5212 38.2662C35.5689 38.2662 42.391 31.0405 42.391 21.4561C42.391 16.9616 40.3536 12.3289 36.9387 9.05599C34.4676 6.68967 30.1088 3.92768 23.3519 4.22731C10.5862 4.78816 3.70269 14.4686 3.70269 23.2885C3.70269 31.3593 7.24807 35.8307 8.76368 37.7399L9.00541 38.0472C10.3484 39.7643 9.27016 42.365 7.34015 46.4407C7.32481 46.4753 7.30946 46.5099 7.29411 46.5406C9.56944 46.0681 12.9537 44.9311 14.9412 42.9873C15.6741 42.2728 16.8444 42.2843 17.558 43.018C18.2717 43.7479 18.2602 44.9234 17.5274 45.6379C14.0472 49.0414 7.72769 50.5011 5.22214 50.5011V50.4973Z" fill="#6E93CC"/>
</svg>
