<svg width="238" height="80" viewBox="0 0 238 80" fill="none" xmlns="http://www.w3.org/2000/svg">
<g clip-path="url(#clip0_602_4114)">
<path d="M97.1289 3.55225H106.964V6.15212H100.267V9.06546H102.678C106.195 9.06546 108.38 10.8786 108.38 13.7059C108.38 16.5332 106.195 18.4693 102.678 18.4693H97.135V3.55225H97.1289ZM102.672 15.937C104.351 15.937 105.267 14.9044 105.267 13.6813C105.267 12.4582 104.351 11.5609 102.672 11.5609H100.261V15.937H102.672Z" fill="white"/>
<path d="M109.931 15.3472C109.931 12.8518 111.909 12.1081 114.106 11.8991C116.036 11.7086 116.799 11.6164 116.799 10.8911V10.8481C116.799 9.9323 116.2 9.39757 115.15 9.39757C114.045 9.39757 113.386 9.94459 113.172 10.6883L110.321 10.4547C110.749 8.41417 112.501 7.13574 115.163 7.13574C117.635 7.13574 119.882 8.26051 119.882 10.9219V18.4695H116.957V16.9206H116.872C116.329 17.9593 115.266 18.6846 113.624 18.6846C111.506 18.6846 109.937 17.5598 109.937 15.3472H109.931ZM116.817 14.4744V13.2882C116.451 13.534 115.346 13.6938 114.674 13.7922C113.587 13.9458 112.873 14.3761 112.873 15.2488C112.873 16.1216 113.551 16.5457 114.503 16.5457C115.858 16.5457 116.817 15.6483 116.817 14.4744Z" fill="white"/>
<path d="M121.664 16.0109H122.03C123.08 16.0109 123.514 15.0705 123.624 12.2371L123.807 7.2832H132.256V18.4694H129.32V9.72328H126.578L126.408 13.1406C126.218 16.896 124.967 18.4694 122.61 18.4694H121.682L121.67 16.0048L121.664 16.0109Z" fill="white"/>
<path d="M134.039 7.2832H144.112V9.72328H140.529V18.4694H137.592V9.72328H134.039V7.2832Z" fill="white"/>
<path d="M152.879 7.2832H155.919V18.4694H152.983V11.352L148.996 18.4694H145.938V7.2832H148.88V14.376L152.879 7.2832Z" fill="white"/>
<path d="M165.564 7.28326H168.605V18.4695H165.668V11.3521L161.682 18.4695H158.623V7.28326H161.566V14.3761L165.564 7.28326ZM167.182 3.38037C167.176 5.14435 165.79 6.32444 163.599 6.32444C161.407 6.32444 160.027 5.14435 160.027 3.38037H162.164C162.158 4.05032 162.548 4.68338 163.605 4.68338C164.661 4.68338 165.039 4.06261 165.039 3.38037H167.188H167.182Z" fill="white"/>
<path d="M170.784 12.9194C170.784 9.48977 172.866 7.13574 176.242 7.13574C179.142 7.13574 181.089 8.83212 181.217 11.4197H178.311C178.147 10.3072 177.42 9.55738 176.291 9.55738C174.856 9.55738 173.916 10.7682 173.916 12.8764C173.916 14.9845 174.85 16.2322 176.291 16.2322C177.347 16.2322 178.128 15.5623 178.311 14.3699H181.217C181.071 16.9391 179.215 18.6908 176.254 18.6908C172.829 18.6908 170.784 16.3244 170.784 12.9194Z" fill="white"/>
<path d="M183.415 7.2832H186.498V11.6225H187.365L190.387 7.2832H194.007L190.075 12.8333L194.05 18.4694H190.387L187.646 14.4989H186.498V18.4694H183.415V7.2832Z" fill="white"/>
<path d="M194.776 15.3472C194.776 12.8518 196.754 12.1081 198.952 11.8991C200.881 11.7086 201.644 11.6164 201.644 10.8911V10.8481C201.644 9.9323 201.046 9.39757 199.996 9.39757C198.891 9.39757 198.232 9.94459 198.018 10.6883L195.167 10.4547C195.594 8.41417 197.347 7.13574 200.008 7.13574C202.481 7.13574 204.727 8.26051 204.727 10.9219V18.4695H201.803V16.9206H201.718C201.174 17.9593 200.112 18.6846 198.47 18.6846C196.351 18.6846 194.782 17.5598 194.782 15.3472H194.776ZM201.663 14.4744V13.2882C201.296 13.534 200.191 13.6938 199.52 13.7922C198.433 13.9458 197.719 14.3761 197.719 15.2488C197.719 16.1216 198.397 16.5457 199.349 16.5457C200.704 16.5457 201.663 15.6483 201.663 14.4744Z" fill="white"/>
<path d="M213.726 14.4377H211.748L209.611 18.4758H206.656L209.049 13.9644C207.725 13.3805 206.968 12.3172 206.974 10.9589C206.961 8.7708 208.756 7.28955 211.632 7.28955H216.589V18.4696H213.72V14.4315L213.726 14.4377ZM213.726 9.71733H211.644C210.508 9.71733 209.91 10.332 209.922 11.0449C209.91 11.7763 210.496 12.3418 211.613 12.3418H213.726V9.71733Z" fill="white"/>
<path d="M96.3291 40.1229H97.3364C98.3559 39.3792 99.1862 37.9287 99.4426 34.0258L99.8638 27.7197H109.668V40.1229H111.286V46.22H108.276V42.6368H99.3388V46.2323H96.3291V40.1229ZM106.652 40.1229V30.3196H102.678L102.446 34.0258C102.251 36.976 101.695 38.8937 100.951 40.1229H106.652Z" fill="white"/>
<path d="M112.593 37.0925C112.593 33.6383 114.711 31.3027 117.983 31.3027C120.92 31.3027 123.209 33.1835 123.209 36.9819V37.8362H115.639C115.639 39.5142 116.616 40.5406 118.154 40.5406C119.18 40.5406 119.98 40.0981 120.291 39.2437L123.142 39.4343C122.709 41.5117 120.859 42.8577 118.105 42.8577C114.681 42.8577 112.593 40.6451 112.593 37.0987V37.0925ZM120.303 35.9124C120.297 34.5787 119.369 33.6199 118.032 33.6199C116.695 33.6199 115.7 34.6402 115.639 35.9124H120.303Z" fill="white"/>
<path d="M124.649 40.1779H125.016C126.066 40.1779 126.499 39.2375 126.609 36.4041L126.792 31.4502H135.241V42.6364H132.305V33.8903H129.564L129.393 37.3076C129.204 41.063 127.952 42.6364 125.596 42.6364H124.668L124.656 40.1718L124.649 40.1779Z" fill="white"/>
<path d="M137.396 37.0864C137.396 33.6199 139.497 31.3027 142.866 31.3027C146.236 31.3027 148.336 33.6199 148.336 37.0864C148.336 40.5529 146.236 42.8577 142.866 42.8577C139.497 42.8577 137.396 40.5344 137.396 37.0864ZM145.205 37.0618C145.205 35.1073 144.411 33.6691 142.885 33.6691C141.359 33.6691 140.534 35.1134 140.534 37.0618C140.534 39.0102 141.328 40.4484 142.885 40.4484C144.442 40.4484 145.205 39.0163 145.205 37.0618Z" fill="white"/>
<path d="M150.516 31.4502H155.253C157.994 31.4502 159.697 32.5381 159.697 34.4742C159.697 35.685 158.751 36.527 157.158 36.8036C159.154 36.9511 160.314 38.1128 160.314 39.5879C160.314 41.4932 158.763 42.6426 155.986 42.6426H150.516V31.4563V31.4502ZM155.32 36.0538C156.242 36.0538 156.798 35.6297 156.798 34.9228C156.798 34.216 156.211 33.8227 155.259 33.8227H153.391V36.0538H155.32ZM155.986 40.3131C156.84 40.3131 157.359 39.8767 157.359 39.1576C157.359 38.3648 156.84 37.8731 155.986 37.8731H153.391V40.3131H155.986Z" fill="white"/>
<path d="M161.901 39.5142C161.901 37.0188 163.879 36.2751 166.077 36.0661C168.006 35.8756 168.769 35.7834 168.769 35.0581V35.0151C168.769 34.0993 168.171 33.5646 167.121 33.5646C166.016 33.5646 165.357 34.1116 165.143 34.8553L162.292 34.6217C162.719 32.5812 164.472 31.3027 167.133 31.3027C169.606 31.3027 171.852 32.4275 171.852 35.0888V42.6365H168.928V41.0876H168.843C168.299 42.1263 167.237 42.8516 165.595 42.8516C163.476 42.8516 161.907 41.7268 161.907 39.5142H161.901ZM168.788 38.6414V37.4552C168.421 37.701 167.316 37.8608 166.645 37.9592C165.558 38.1128 164.844 38.5431 164.844 39.4158C164.844 40.2886 165.522 40.7127 166.474 40.7127C167.829 40.7127 168.788 39.8153 168.788 38.6414Z" fill="white"/>
<path d="M180.851 38.6047H178.873L176.736 42.6428H173.781L176.174 38.1314C174.85 37.5475 174.093 36.4842 174.099 35.1259C174.086 32.9378 175.881 31.4565 178.757 31.4565H183.714V42.6428H180.845V38.6047H180.851ZM180.851 33.8843H178.769C177.633 33.8843 177.035 34.499 177.047 35.2119C177.035 35.9433 177.621 36.5088 178.738 36.5088H180.851V33.8843Z" fill="white"/>
<path d="M101.335 60.4487H100.267V66.8101H97.1348V51.8931H100.267V57.8488H100.895L105.816 51.8931H109.717L103.936 58.8138L109.986 66.8101H106.103L101.341 60.4487H101.335Z" fill="white"/>
<path d="M110.267 61.2597C110.267 57.7932 112.367 55.4761 115.737 55.4761C119.106 55.4761 121.207 57.7932 121.207 61.2597C121.207 64.7262 119.106 67.0311 115.737 67.0311C112.367 67.0311 110.267 64.7078 110.267 61.2597ZM118.075 61.2351C118.075 59.2806 117.281 57.8424 115.755 57.8424C114.229 57.8424 113.405 59.2868 113.405 61.2351C113.405 63.1835 114.198 64.6217 115.755 64.6217C117.312 64.6217 118.075 63.1897 118.075 61.2351Z" fill="white"/>
<path d="M126.334 59.9754H130.131V55.6177H133.056V66.8039H130.131V62.4093H126.334V66.8039H123.392V55.6177H126.334V59.9754Z" fill="white"/>
<path d="M140.931 67.025C137.531 67.025 135.168 64.6648 135.168 61.2537C135.168 57.8425 137.537 55.47 140.931 55.47V51.8867H144.008V55.47C147.408 55.47 149.777 57.824 149.777 61.2537C149.777 64.6833 147.408 67.025 144.008 67.025V70.6083H140.931V67.025ZM140.931 57.8916C139.277 57.8916 138.336 59.3852 138.336 61.2598C138.336 63.1344 139.289 64.6095 140.931 64.6095V57.8916ZM146.609 61.2598C146.609 59.3852 145.662 57.8916 144.002 57.8916V64.6095C145.656 64.6095 146.609 63.1283 146.609 61.2598Z" fill="white"/>
<path d="M151.413 61.2659C151.413 57.8117 153.531 55.4761 156.804 55.4761C159.74 55.4761 162.029 57.3568 162.029 61.1552V62.0096H154.459C154.459 63.6875 155.436 64.7139 156.975 64.7139C158 64.7139 158.8 64.2714 159.111 63.4171L161.962 63.6076C161.529 65.685 159.679 67.0311 156.926 67.0311C153.501 67.0311 151.413 64.8184 151.413 61.272V61.2659ZM159.124 60.0858C159.117 58.752 158.189 57.7932 156.853 57.7932C155.516 57.7932 154.52 58.8135 154.459 60.0858H159.124Z" fill="white"/>
<path d="M164.24 55.6174H167.28V57.4982H167.415C167.83 56.5886 168.715 55.4761 170.577 55.4761C173.013 55.4761 175.076 57.3814 175.076 61.229C175.076 65.0766 173.098 66.9881 170.571 66.9881C168.776 66.9881 167.842 65.9493 167.415 65.0151H167.323V71.0016H164.24V55.6174ZM169.594 64.5173C171.108 64.5173 171.932 63.1651 171.932 61.2106C171.932 59.256 171.12 57.9407 169.594 57.9407C168.068 57.9407 167.256 59.213 167.256 61.2106C167.256 63.2081 168.111 64.5173 169.594 64.5173Z" fill="white"/>
<path d="M176.755 61.2659C176.755 57.8117 178.873 55.4761 182.145 55.4761C185.082 55.4761 187.371 57.3568 187.371 61.1552V62.0096H179.801C179.801 63.6875 180.778 64.7139 182.316 64.7139C183.342 64.7139 184.142 64.2714 184.453 63.4171L187.304 63.6076C186.871 65.685 185.021 67.0311 182.268 67.0311C178.843 67.0311 176.755 64.8184 176.755 61.272V61.2659ZM184.465 60.0858C184.459 58.752 183.531 57.7932 182.194 57.7932C180.857 57.7932 179.862 58.8135 179.801 60.0858H184.465Z" fill="white"/>
<path d="M192.561 59.9754H196.358V55.6177H199.282V66.8039H196.358V62.4093H192.561V66.8039H189.618V55.6177H192.561V59.9754Z" fill="white"/>
<path d="M211.675 64.6647H213.445V70.4053H210.448V66.8098H201.956V55.6235H204.899V64.3697H208.763V55.6235H211.669V64.6709L211.675 64.6647Z" fill="white"/>
<path d="M222.34 55.6177H225.38V66.8039H222.443V59.6865L218.457 66.8039H215.398V55.6177H218.341V62.7105L222.34 55.6177Z" fill="white"/>
<path d="M234.458 62.7717H232.48L230.343 66.8098H227.389L229.782 62.2984C228.457 61.7145 227.7 60.6512 227.706 59.2929C227.694 57.1048 229.489 55.6235 232.364 55.6235H237.321V66.8098H234.452V62.7717H234.458ZM234.458 58.0513H232.376C231.241 58.0513 230.643 58.6659 230.655 59.3789C230.643 60.1103 231.229 60.6758 232.346 60.6758H234.458V58.0513Z" fill="white"/>
<path d="M8.30874 80C8.06455 80 7.83867 79.9938 7.64331 79.9754C6.41012 79.8647 5.48218 79.3853 4.89611 78.5494C3.6324 76.767 4.43214 75.0706 6.36129 70.9649C7.30754 68.9489 9.21837 64.8985 9.37099 63.319L9.33436 63.2698C6.77642 60.043 0 51.4505 0 36.4659C0 28.0086 3.376 19.3423 9.26721 12.6859C14.0595 7.26487 22.7468 0.669906 36.8918 0.0429854C49.7181 -0.516326 58.0818 4.81865 62.8375 9.40992C69.4064 15.7406 73.3257 24.7572 73.3257 33.5279C73.3257 52.2434 59.9377 66.3552 42.1847 66.3552C27.4475 66.3552 15.3965 54.2347 15.3294 39.33C15.2988 32.6306 17.7164 26.5457 22.1363 22.1942C26.5257 17.8672 32.6428 15.5808 39.346 15.7652C50.9818 16.0786 57.9292 26.0786 57.9292 35.5623C57.9292 44.4253 51.0673 51.4443 42.3068 51.5427C38.3448 51.5611 34.34 49.9631 31.5683 47.2034C29.0531 44.6957 27.7223 41.4935 27.7284 37.9348C27.7284 31.9545 32.5695 27.0866 38.5096 27.0866C43.5888 27.0866 47.7218 31.2477 47.7218 36.3614C47.7218 37.9963 46.4032 39.3239 44.7793 39.3239C43.1554 39.3239 41.8367 37.9963 41.8367 36.3614C41.8367 34.5175 40.3472 33.0178 38.5157 33.0178C35.8234 33.0178 33.6257 35.2243 33.6257 37.941C33.6257 39.9078 34.3277 41.6103 35.7197 42.9932C37.3741 44.6404 39.8649 45.6545 42.2519 45.6238C48.3873 45.5562 52.0563 40.4609 52.0563 35.5746C52.0563 28.9244 47.2457 21.9176 39.2055 21.7025C34.0286 21.5673 29.5598 23.2022 26.2693 26.4413C22.9971 29.6619 21.2084 34.2347 21.2328 39.3116C21.2877 50.9588 30.6892 60.4302 42.1969 60.4302C56.5922 60.4302 67.4467 48.869 67.4467 33.5341C67.4467 26.3429 64.205 18.9305 58.7717 13.6939C54.8401 9.90777 47.905 5.48859 37.1543 5.968C16.8434 6.86536 5.89121 22.354 5.89121 36.4659C5.89121 49.3792 11.5321 56.5335 13.9435 59.5882L14.3282 60.0799C16.4649 62.8272 14.7494 66.9883 11.6786 73.5095C11.6542 73.5648 11.6298 73.6201 11.6054 73.6693C15.2256 72.9133 20.6101 71.094 23.7724 67.984C24.9384 66.8408 26.8004 66.8592 27.9359 68.0331C29.0714 69.2009 29.0531 71.0817 27.8871 72.2249C22.35 77.6705 12.2952 80.0061 8.30874 80.0061V80Z" fill="white"/>
</g>
<defs>
<clipPath id="clip0_602_4114">
<rect width="237.333" height="80" fill="white"/>
</clipPath>
</defs>
</svg>
