<svg width="120" height="40" viewBox="0 0 120 40" fill="none" xmlns="http://www.w3.org/2000/svg">
<g clip-path="url(#clip0_681_490)">
<path d="M48.8369 1.77637H53.782V3.07631H50.4147V4.53297H51.6272C53.3953 4.53297 54.4942 5.43955 54.4942 6.8532C54.4942 8.26684 53.3953 9.23488 51.6272 9.23488H48.84V1.77637H48.8369ZM51.6241 7.96875C52.4682 7.96875 52.9287 7.45246 52.9287 6.8409C52.9287 6.22935 52.4682 5.78067 51.6241 5.78067H50.4116V7.96875H51.6241Z" fill="#F6F3E9"/>
<path d="M55.2734 7.67408C55.2734 6.42638 56.268 6.05453 57.373 5.95004C58.343 5.85478 58.7267 5.80868 58.7267 5.44605V5.42454C58.7267 4.96664 58.4259 4.69928 57.8979 4.69928C57.3423 4.69928 57.0108 4.97278 56.9034 5.34463L55.4699 5.22786C55.6848 4.20757 56.5657 3.56836 57.9041 3.56836C59.1473 3.56836 60.2769 4.13074 60.2769 5.46141V9.23523H58.8065V8.4608H58.7636C58.4904 8.98016 57.9563 9.34279 57.1305 9.34279C56.0654 9.34279 55.2765 8.78041 55.2765 7.67408H55.2734ZM58.7359 7.23769V6.64457C58.5518 6.7675 57.9962 6.8474 57.6585 6.89657C57.1121 6.9734 56.753 7.18852 56.753 7.62491C56.753 8.06129 57.0937 8.27334 57.5726 8.27334C58.254 8.27334 58.7359 7.82466 58.7359 7.23769Z" fill="#F6F3E9"/>
<path d="M61.1738 8.00595H61.358C61.886 8.00595 62.1039 7.53576 62.1592 6.11904L62.2513 3.64209H66.4996V9.23521H65.0231V4.86213H63.6448L63.5589 6.57079C63.4637 8.44848 62.8345 9.23521 61.6496 9.23521H61.183L61.1769 8.00288L61.1738 8.00595Z" fill="#F6F3E9"/>
<path d="M67.3955 3.64209H72.4603V4.86213H70.6585V9.23521H69.182V4.86213H67.3955V3.64209Z" fill="#F6F3E9"/>
<path d="M76.8681 3.64209H78.3967V9.23521H76.9202V5.67651L74.9158 9.23521H73.3779V3.64209H74.8575V7.18849L76.8681 3.64209Z" fill="#F6F3E9"/>
<path d="M83.247 3.64187H84.7756V9.23499H83.2991V5.67629L81.2947 9.23499H79.7568V3.64187H81.2364V7.18828L83.247 3.64187ZM84.0604 1.69043C84.0573 2.57242 83.3605 3.16246 82.2586 3.16246C81.1566 3.16246 80.4628 2.57242 80.4628 1.69043H81.5372C81.5341 2.0254 81.7306 2.34194 82.2616 2.34194C82.7927 2.34194 82.983 2.03155 82.983 1.69043H84.0635H84.0604Z" fill="#F6F3E9"/>
<path d="M85.8711 6.46019C85.8711 4.74537 86.9178 3.56836 88.6153 3.56836C90.0734 3.56836 91.0526 4.41655 91.117 5.71034H89.6559C89.573 5.1541 89.2077 4.77918 88.6399 4.77918C87.9185 4.77918 87.4458 5.38459 87.4458 6.43867C87.4458 7.49276 87.9154 8.11661 88.6399 8.11661C89.1709 8.11661 89.5638 7.78164 89.6559 7.18545H91.117C91.0433 8.47002 90.1102 9.34586 88.6214 9.34586C86.8994 9.34586 85.8711 8.1627 85.8711 6.46019Z" fill="#F6F3E9"/>
<path d="M92.2227 3.64209H93.7728V5.81173H94.2087L95.7281 3.64209H97.5484L95.5716 6.41714L97.5699 9.23521H95.7281L94.3499 7.24996H93.7728V9.23521H92.2227V3.64209Z" fill="#F6F3E9"/>
<path d="M97.9346 7.67408C97.9346 6.42638 98.9291 6.05453 100.034 5.95004C101.004 5.85478 101.388 5.80868 101.388 5.44605V5.42454C101.388 4.96664 101.087 4.69928 100.559 4.69928C100.003 4.69928 99.672 4.97278 99.5645 5.34463L98.131 5.22786C98.3459 4.20757 99.2269 3.56836 100.565 3.56836C101.808 3.56836 102.938 4.13074 102.938 5.46141V9.23523H101.468V8.4608H101.425C101.152 8.98016 100.617 9.34279 99.7917 9.34279C98.7265 9.34279 97.9376 8.78041 97.9376 7.67408H97.9346ZM101.397 7.23769V6.64457C101.213 6.7675 100.657 6.8474 100.32 6.89657C99.7733 6.9734 99.4141 7.18852 99.4141 7.62491C99.4141 8.06129 99.7548 8.27334 100.234 8.27334C100.915 8.27334 101.397 7.82466 101.397 7.23769Z" fill="#F6F3E9"/>
<path d="M107.463 7.21908H106.468L105.394 9.23814H103.908L105.111 6.98245C104.445 6.6905 104.065 6.15885 104.068 5.47968C104.062 4.38565 104.964 3.64502 106.41 3.64502H108.902V9.23506H107.46V7.21601L107.463 7.21908ZM107.463 4.85891H106.416C105.845 4.85891 105.544 5.16622 105.55 5.52271C105.544 5.88841 105.839 6.17114 106.401 6.17114H107.463V4.85891Z" fill="#F6F3E9"/>
<path d="M48.4346 20.0615H48.9411C49.4537 19.6896 49.8711 18.9644 50.0001 17.0129L50.2119 13.8599H55.1416V20.0615H55.9551V23.11H54.4418V21.3184H49.9479V23.1162H48.4346V20.0615ZM53.6252 20.0615V15.1598H51.6269L51.5103 17.0129C51.4121 18.488 51.1327 19.4468 50.7583 20.0615H53.6252Z" fill="#F6F3E9"/>
<path d="M56.6123 18.5468C56.6123 16.8196 57.6775 15.6519 59.3228 15.6519C60.7992 15.6519 61.9503 16.5922 61.9503 18.4914V18.9186H58.144C58.144 19.7576 58.6352 20.2708 59.4087 20.2708C59.9244 20.2708 60.3265 20.0495 60.4831 19.6224L61.9166 19.7176C61.6986 20.7563 60.7685 21.4294 59.3841 21.4294C57.6621 21.4294 56.6123 20.323 56.6123 18.5498V18.5468ZM60.4892 17.9567C60.4861 17.2898 60.0195 16.8104 59.3473 16.8104C58.6751 16.8104 58.1747 17.3206 58.144 17.9567H60.4892Z" fill="#F6F3E9"/>
<path d="M62.6748 20.0894H62.859C63.387 20.0894 63.6049 19.6193 63.6601 18.2025L63.7522 15.7256H68.0005V21.3187H66.5241V16.9456H65.1458L65.0599 18.6543C64.9647 20.532 64.3355 21.3187 63.1506 21.3187H62.684L62.6779 20.0864L62.6748 20.0894Z" fill="#F6F3E9"/>
<path d="M69.084 18.5437C69.084 16.8104 70.1399 15.6519 71.8343 15.6519C73.5288 15.6519 74.5847 16.8104 74.5847 18.5437C74.5847 20.2769 73.5288 21.4294 71.8343 21.4294C70.1399 21.4294 69.084 20.2677 69.084 18.5437ZM73.01 18.5314C73.01 17.5541 72.6109 16.835 71.8435 16.835C71.0761 16.835 70.6618 17.5572 70.6618 18.5314C70.6618 19.5056 71.0608 20.2247 71.8435 20.2247C72.6263 20.2247 73.01 19.5086 73.01 18.5314Z" fill="#F6F3E9"/>
<path d="M75.6807 15.7256H78.0627C79.4409 15.7256 80.2973 16.2695 80.2973 17.2376C80.2973 17.843 79.8215 18.264 79.0204 18.4023C80.0241 18.476 80.6074 19.0569 80.6074 19.7944C80.6074 20.7471 79.8277 21.3218 78.431 21.3218H75.6807V15.7287V15.7256ZM78.0964 18.0274C78.5599 18.0274 78.8393 17.8153 78.8393 17.4619C78.8393 17.1085 78.5446 16.9118 78.0657 16.9118H77.1264V18.0274H78.0964ZM78.431 20.1571C78.8608 20.1571 79.1217 19.9389 79.1217 19.5793C79.1217 19.1829 78.8608 18.937 78.431 18.937H77.1264V20.1571H78.431Z" fill="#F6F3E9"/>
<path d="M81.4053 19.7576C81.4053 18.5099 82.3998 18.138 83.5049 18.0335C84.4749 17.9383 84.8586 17.8922 84.8586 17.5295V17.508C84.8586 17.0501 84.5577 16.7828 84.0298 16.7828C83.4742 16.7828 83.1427 17.0563 83.0352 17.4281L81.6017 17.3114C81.8166 16.2911 82.6976 15.6519 84.0359 15.6519C85.2791 15.6519 86.4087 16.2142 86.4087 17.5449V21.3187H84.9384V20.5443H84.8954C84.6222 21.0637 84.0881 21.4263 83.2624 21.4263C82.1972 21.4263 81.4083 20.8639 81.4083 19.7576H81.4053ZM84.8678 19.3212V18.7281C84.6836 18.851 84.128 18.9309 83.7903 18.9801C83.244 19.0569 82.8848 19.272 82.8848 19.7084C82.8848 20.1448 83.2255 20.3568 83.7044 20.3568C84.3858 20.3568 84.8678 19.9082 84.8678 19.3212Z" fill="#F6F3E9"/>
<path d="M90.9335 19.3026H89.9389L88.8646 21.3216H87.3789L88.5822 19.0659C87.9161 18.774 87.5355 18.2423 87.5385 17.5632C87.5324 16.4691 88.4348 15.7285 89.8806 15.7285H92.3731V21.3216H90.9304V19.3026H90.9335ZM90.9335 16.9424H89.8868C89.3158 16.9424 89.015 17.2497 89.0211 17.6062C89.015 17.9719 89.3097 18.2546 89.8714 18.2546H90.9335V16.9424Z" fill="#F6F3E9"/>
<path d="M50.9517 30.2246H50.4145V33.4053H48.8398V25.9468H50.4145V28.9247H50.7307L53.2048 25.9468H55.1663L52.2594 29.4071L55.3013 33.4053H53.3491L50.9548 30.2246H50.9517Z" fill="#F6F3E9"/>
<path d="M55.4424 30.6301C55.4424 28.8969 56.4983 27.7383 58.1927 27.7383C59.8871 27.7383 60.9431 28.8969 60.9431 30.6301C60.9431 32.3634 59.8871 33.5158 58.1927 33.5158C56.4983 33.5158 55.4424 32.3541 55.4424 30.6301ZM59.3684 30.6178C59.3684 29.6406 58.9693 28.9214 58.2019 28.9214C57.4345 28.9214 57.0202 29.6436 57.0202 30.6178C57.0202 31.592 57.4192 32.3111 58.2019 32.3111C58.9847 32.3111 59.3684 31.5951 59.3684 30.6178Z" fill="#F6F3E9"/>
<path d="M63.5215 29.9879H65.4308V27.8091H66.9012V33.4022H65.4308V31.2049H63.5215V33.4022H62.042V27.8091H63.5215V29.9879Z" fill="#F6F3E9"/>
<path d="M70.8606 33.513C69.1508 33.513 67.9629 32.3329 67.9629 30.6273C67.9629 28.9217 69.1539 27.7355 70.8606 27.7355V25.9438H72.4077V27.7355C74.1174 27.7355 75.3084 28.9125 75.3084 30.6273C75.3084 32.3421 74.1174 33.513 72.4077 33.513V35.3046H70.8606V33.513ZM70.8606 28.9463C70.0287 28.9463 69.556 29.6931 69.556 30.6304C69.556 31.5677 70.0349 32.3053 70.8606 32.3053V28.9463ZM73.7153 30.6304C73.7153 29.6931 73.2395 28.9463 72.4046 28.9463V32.3053C73.2364 32.3053 73.7153 31.5646 73.7153 30.6304Z" fill="#F6F3E9"/>
<path d="M76.1318 30.6332C76.1318 28.9061 77.197 27.7383 78.8423 27.7383C80.3188 27.7383 81.4699 28.6787 81.4699 30.5779V31.005H77.6636C77.6636 31.844 78.1547 32.3572 78.9282 32.3572C79.4439 32.3572 79.846 32.1359 80.0026 31.7088L81.4361 31.804C81.2181 32.8428 80.2881 33.5158 78.9037 33.5158C77.1816 33.5158 76.1318 32.4095 76.1318 30.6363V30.6332ZM80.0087 30.0431C80.0057 29.3763 79.5391 28.8969 78.8668 28.8969C78.1946 28.8969 77.6943 29.407 77.6636 30.0431H80.0087Z" fill="#F6F3E9"/>
<path d="M82.5811 27.809H84.1097V28.7493H84.1772C84.386 28.2945 84.8311 27.7383 85.7673 27.7383C86.9921 27.7383 88.0296 28.691 88.0296 30.6147C88.0296 32.5385 87.035 33.4943 85.7642 33.4943C84.8618 33.4943 84.3921 32.9749 84.1772 32.5078H84.1312V35.501H82.5811V27.809ZM85.2731 32.2589C86.0343 32.2589 86.4487 31.5828 86.4487 30.6055C86.4487 29.6283 86.0405 28.9706 85.2731 28.9706C84.5057 28.9706 84.0974 29.6067 84.0974 30.6055C84.0974 31.6043 84.5272 32.2589 85.2731 32.2589Z" fill="#F6F3E9"/>
<path d="M88.873 30.6332C88.873 28.9061 89.9382 27.7383 91.5835 27.7383C93.06 27.7383 94.2111 28.6787 94.2111 30.5779V31.005H90.4048C90.4048 31.844 90.8959 32.3572 91.6694 32.3572C92.1851 32.3572 92.5873 32.1359 92.7438 31.7088L94.1773 31.804C93.9594 32.8428 93.0293 33.5158 91.6449 33.5158C89.9228 33.5158 88.873 32.4095 88.873 30.6363V30.6332ZM92.7499 30.0431C92.7469 29.3763 92.2803 28.8969 91.6081 28.8969C90.9358 28.8969 90.4355 29.407 90.4048 30.0431H92.7499Z" fill="#F6F3E9"/>
<path d="M96.8204 29.9879H98.7296V27.8091H100.2V33.4022H98.7296V31.2049H96.8204V33.4022H95.3408V27.8091H96.8204V29.9879Z" fill="#F6F3E9"/>
<path d="M106.432 32.3326H107.322V35.2029H105.815V33.4051H101.545V27.812H103.024V32.1851H104.968V27.812H106.429V32.3357L106.432 32.3326Z" fill="#F6F3E9"/>
<path d="M111.794 27.8091H113.322V33.4022H111.846V29.8435L109.842 33.4022H108.304V27.8091H109.783V31.3555L111.794 27.8091Z" fill="#F6F3E9"/>
<path d="M117.887 31.3861H116.892L115.818 33.4051H114.332L115.535 31.1494C114.869 30.8575 114.489 30.3258 114.492 29.6467C114.486 28.5526 115.388 27.812 116.834 27.812H119.326V33.4051H117.884V31.3861H117.887ZM117.887 29.0259H116.84C116.269 29.0259 115.968 29.3332 115.974 29.6897C115.968 30.0554 116.263 30.3381 116.825 30.3381H117.887V29.0259Z" fill="#F6F3E9"/>
<path d="M4.17771 40.0002C4.05493 40.0002 3.94135 39.9972 3.84313 39.9879C3.22307 39.9326 2.75649 39.6929 2.46181 39.275C1.82641 38.3838 2.22852 37.5356 3.19851 35.4827C3.6743 34.4747 4.63508 32.4495 4.71182 31.6597L4.6934 31.6351C3.40724 30.0217 0 25.7255 0 18.2332C0 14.0045 1.69748 9.6714 4.65964 6.34319C7.06926 3.63268 11.4373 0.335197 18.5495 0.0217368C24.9987 -0.257919 29.2041 2.40957 31.5953 4.7052C34.8982 7.87054 36.8688 12.3788 36.8688 16.7642C36.8688 26.1219 30.1372 33.1779 21.2109 33.1779C13.8009 33.1779 7.7415 27.1176 7.70774 19.6653C7.69239 16.3155 8.90795 13.2731 11.1303 11.0973C13.3374 8.93384 16.4131 7.79064 19.7835 7.88283C25.6341 8.03956 29.1273 13.0396 29.1273 17.7814C29.1273 22.2129 25.6771 25.7224 21.2723 25.7716C19.2801 25.7808 17.2664 24.9818 15.8728 23.6019C14.6082 22.3481 13.939 20.747 13.9421 18.9676C13.9421 15.9775 16.3763 13.5436 19.363 13.5436C21.9169 13.5436 23.995 15.6241 23.995 18.1809C23.995 18.9984 23.3319 19.6622 22.5154 19.6622C21.6989 19.6622 21.0359 18.9984 21.0359 18.1809C21.0359 17.259 20.2869 16.5091 19.366 16.5091C18.0123 16.5091 16.9073 17.6124 16.9073 18.9707C16.9073 19.9541 17.2603 20.8054 17.9602 21.4968C18.792 22.3204 20.0444 22.8275 21.2446 22.8121C24.3296 22.7783 26.1744 20.2307 26.1744 17.7876C26.1744 14.4624 23.7555 10.959 19.7129 10.8515C17.1099 10.7839 14.8629 11.6013 13.2084 13.2209C11.5631 14.8312 10.6638 17.1176 10.676 19.656C10.7037 25.4796 15.4308 30.2153 21.217 30.2153C28.4551 30.2153 33.9128 24.4348 33.9128 16.7673C33.9128 13.1717 32.2829 9.4655 29.5509 6.84718C27.5741 4.95413 24.0871 2.74454 18.6815 2.98424C8.469 3.43292 2.96215 11.1772 2.96215 18.2332C2.96215 24.6898 5.79845 28.267 7.01094 29.7943L7.20432 30.0402C8.27868 31.4139 7.41613 33.4944 5.87212 36.755C5.85984 36.7826 5.84757 36.8103 5.83529 36.8349C7.65555 36.4569 10.3629 35.5472 11.953 33.9922C12.5393 33.4206 13.4755 33.4299 14.0464 34.0168C14.6174 34.6007 14.6082 35.5411 14.0219 36.1127C11.2378 38.8355 6.18215 40.0033 4.17771 40.0033V40.0002Z" fill="#6E93CC"/>
</g>
<defs>
<clipPath id="clip0_681_490">
<rect width="119.333" height="40" fill="white"/>
</clipPath>
</defs>
</svg>
