<svg width="218" height="60" viewBox="0 0 218 60" fill="none" xmlns="http://www.w3.org/2000/svg">
<rect y="27.8932" width="1.68539" height="4.21348" rx="0.842697" fill="#312B80"/>
<rect x="6.74158" y="25.7865" width="1.68539" height="8.42697" rx="0.842697" fill="#312B80"/>
<rect x="13.4832" y="21.573" width="1.68539" height="16.8539" rx="0.842697" fill="#312B80"/>
<rect x="20.2247" y="17.3596" width="1.68539" height="25.2809" rx="0.842697" fill="#312B80"/>
<rect x="26.9663" y="17.3598" width="1.68539" height="25.2809" rx="0.842697" fill="#312B80"/>
<rect x="33.7079" y="4.71933" width="1.68539" height="50.5618" rx="0.842697" fill="#312B80"/>
<rect x="40.4494" y="21.5733" width="1.68539" height="16.8539" rx="0.842697" fill="#D3E0F4"/>
<rect x="47.191" y="17.3598" width="1.68539" height="25.2809" rx="0.842697" fill="#D3E0F4"/>
<rect x="53.9326" y="4.71933" width="1.68539" height="50.5618" rx="0.842697" fill="#D3E0F4"/>
<rect x="60.6742" y="13.1463" width="1.68539" height="33.7079" rx="0.842697" fill="#D3E0F4"/>
<rect x="67.4157" y="4.71933" width="1.68539" height="50.5618" rx="0.842697" fill="#D3E0F4"/>
<rect x="74.1573" y="17.3598" width="1.68539" height="25.2809" rx="0.842697" fill="#D3E0F4"/>
<rect x="80.8989" y="17.3598" width="1.68539" height="25.2809" rx="0.842697" fill="#D3E0F4"/>
<rect x="87.6404" y="17.3598" width="1.68539" height="25.2809" rx="0.842697" fill="#D3E0F4"/>
<rect x="94.382" y="21.5733" width="1.68539" height="16.8539" rx="0.842697" fill="#D3E0F4"/>
<rect x="101.124" y="13.1463" width="1.68539" height="33.7079" rx="0.842697" fill="#D3E0F4"/>
<rect x="107.865" y="13.1463" width="1.68539" height="33.7079" rx="0.842697" fill="#D3E0F4"/>
<rect x="114.607" y="17.3598" width="1.68539" height="25.2809" rx="0.842697" fill="#D3E0F4"/>
<rect x="121.348" y="17.3598" width="1.68539" height="25.2809" rx="0.842697" fill="#D3E0F4"/>
<rect x="128.09" y="17.3598" width="1.68539" height="25.2809" rx="0.842697" fill="#D3E0F4"/>
<rect x="134.831" y="13.1463" width="1.68539" height="33.7079" rx="0.842697" fill="#D3E0F4"/>
<rect x="141.573" y="17.3598" width="1.68539" height="25.2809" rx="0.842697" fill="#D3E0F4"/>
<rect x="148.315" y="0.505859" width="1.68539" height="58.9888" rx="0.842697" fill="#D3E0F4"/>
<rect x="155.056" y="4.71933" width="1.68539" height="50.5618" rx="0.842697" fill="#D3E0F4"/>
<rect x="161.798" y="0.505859" width="1.68539" height="58.9888" rx="0.842697" fill="#D3E0F4"/>
<rect x="168.539" y="17.3598" width="1.68539" height="25.2809" rx="0.842697" fill="#D3E0F4"/>
<rect x="175.281" y="17.3598" width="1.68539" height="25.2809" rx="0.842697" fill="#D3E0F4"/>
<rect x="182.022" y="17.3598" width="1.68539" height="25.2809" rx="0.842697" fill="#D3E0F4"/>
<rect x="188.764" y="25.7867" width="1.68539" height="8.42697" rx="0.842697" fill="#D3E0F4"/>
<rect x="195.506" y="17.3598" width="1.68539" height="25.2809" rx="0.842697" fill="#D3E0F4"/>
<rect x="202.247" y="17.3598" width="1.68539" height="25.2809" rx="0.842697" fill="#D3E0F4"/>
<rect x="208.989" y="17.3598" width="1.68539" height="25.2809" rx="0.842697" fill="#D3E0F4"/>
<rect x="215.73" y="27.8935" width="1.68539" height="4.21348" rx="0.842697" fill="#D3E0F4"/>
</svg>
