<svg width="22" height="21" viewBox="0 0 22 21" fill="none" xmlns="http://www.w3.org/2000/svg">
<path d="M0.580095 18.8374C0.165487 19.2023 0.125154 19.8342 0.490009 20.2488C0.854864 20.6634 1.48674 20.7037 1.90135 20.3388L0.580095 18.8374ZM21.7572 2.47551C21.7924 1.92435 21.3741 1.44902 20.823 1.41384L11.8413 0.840539C11.2901 0.805358 10.8148 1.22364 10.7796 1.77481C10.7444 2.32597 11.1627 2.8013 11.7139 2.83648L19.6976 3.34608L19.188 11.3298C19.1528 11.881 19.5711 12.3563 20.1223 12.3915C20.6734 12.4267 21.1488 12.0084 21.1839 11.4572L21.7572 2.47551ZM1.90135 20.3388L21.4199 3.16252L20.0986 1.6611L0.580095 18.8374L1.90135 20.3388Z" fill="white"/>
</svg>
