<svg width="24" height="24" viewBox="0 0 24 24" fill="none" xmlns="http://www.w3.org/2000/svg">
<path fill-rule="evenodd" clip-rule="evenodd" d="M20.3075 18.9195C20.3619 18.9267 20.4164 18.9341 20.4708 18.9417L20.7443 18.9801C21.9351 19.1472 23.0005 18.2396 23.0005 17.058V16.1562C23.0005 15.3112 22.4597 14.5573 21.6495 14.2731C20.7134 13.9447 19.7471 13.7309 18.7716 13.6317C19.7894 14.3676 20.4208 15.5593 20.4208 16.8594V17.979C20.4208 18.3042 20.3814 18.619 20.3075 18.9195ZM16.1816 12.432C16.5873 12.5995 17.0329 12.6921 17.5005 12.6921C19.3818 12.6921 20.9069 11.194 20.9069 9.34603C20.9069 7.49807 19.3818 6 17.5005 6C17.4448 6 17.3893 6.00131 17.3343 6.00391C17.6764 6.73253 17.8676 7.54606 17.8676 8.40426C17.8676 9.98076 17.2224 11.4066 16.1816 12.432Z" fill="white"/>
<path fill-rule="evenodd" clip-rule="evenodd" d="M4.07436 18.9195C4.01991 18.9267 3.96548 18.9341 3.91107 18.9417L3.63756 18.9801C2.44674 19.1472 1.38132 18.2396 1.38132 17.058V16.1562C1.38132 15.3112 1.92215 14.5573 2.73234 14.2731C3.6684 13.9447 4.63476 13.7309 5.61028 13.6317C4.59239 14.3676 3.96106 15.5593 3.96106 16.8594V17.979C3.96106 18.3042 4.00041 18.619 4.07436 18.9195ZM8.2002 12.432C7.79455 12.5995 7.34894 12.6921 6.88133 12.6921C5.00001 12.6921 3.47491 11.194 3.47491 9.34603C3.47491 7.49807 5.00001 6 6.88133 6C6.93706 6 6.99248 6.00131 7.04756 6.00391C6.70545 6.73253 6.51426 7.54606 6.51426 8.40426C6.51426 9.98076 7.15945 11.4066 8.2002 12.432Z" fill="white"/>
<path fill-rule="evenodd" clip-rule="evenodd" d="M16.3676 8.40426C16.3676 6.10992 14.5076 4.25 12.2133 4.25C9.91897 4.25 8.05904 6.10992 8.05904 8.40426C8.05904 10.6986 9.91897 12.5585 12.2133 12.5585C14.5076 12.5585 16.3676 10.6986 16.3676 8.40426Z" fill="white"/>
<path fill-rule="evenodd" clip-rule="evenodd" d="M7.15347 14.5215C10.4255 13.3529 14.0011 13.3529 17.2731 14.5215C18.2612 14.8743 18.9208 15.8103 18.9208 16.8594V17.979C18.9208 19.446 17.6214 20.5729 16.1692 20.3654L15.8356 20.3178C13.4329 19.9745 10.9937 19.9745 8.59097 20.3178L8.25742 20.3654C6.80517 20.5729 5.50586 19.446 5.50586 17.979V16.8594C5.50586 15.8103 6.16541 14.8743 7.15347 14.5215Z" fill="white"/>
</svg>
