<svg width="30" height="30" viewBox="0 0 30 30" fill="none" xmlns="http://www.w3.org/2000/svg">
<path fill-rule="evenodd" clip-rule="evenodd" d="M29 15.319L29 22.9995C29 26.3132 26.3137 28.9995 23 28.9995L7 28.9995C3.68629 28.9995 0.999999 26.3132 0.999999 22.9995L0.999999 15.319C1 12.0053 3.68629 9.31902 7 9.31902L9.4 9.31902L14.2499 9.31902L14.2499 19.5148L11.3506 16.3796C11.0694 16.0755 10.5948 16.0569 10.2907 16.3382C9.98663 16.6194 9.96808 17.0939 10.2493 17.398L13.4594 20.8692C14.303 21.7814 15.6969 21.7814 16.5405 20.8692L19.7506 17.398C20.0318 17.0939 20.0133 16.6194 19.7092 16.3382C19.4051 16.0569 18.9305 16.0755 18.6493 16.3796L15.7499 19.5148L15.7499 9.31902L20.6 9.31902L23 9.31902C26.3137 9.31902 29 12.0053 29 15.319ZM15.7499 9.31902L15.7499 1.75C15.7499 1.33579 15.4142 0.999999 14.9999 0.999999C14.5857 0.999999 14.2499 1.33579 14.2499 1.75L14.2499 9.31902L15.7499 9.31902Z" fill="white"/>
</svg>
